<svg xmlns="http://www.w3.org/2000/svg" width="21.612" height="12.765" viewBox="0 0 21.612 12.765"><g transform="translate(0 -100.698)"><g transform="translate(0 100.698)"><path d="M21.266,101.765l-.708-.713a1.185,1.185,0,0,0-1.672,0l-8.076,8.076-8.085-8.085a1.185,1.185,0,0,0-1.672,0l-.708.708a1.183,1.183,0,0,0,0,1.672l9.626,9.661a1.208,1.208,0,0,0,.838.379h0a1.208,1.208,0,0,0,.836-.379l9.617-9.634a1.194,1.194,0,0,0,.345-.844A1.182,1.182,0,0,0,21.266,101.765Z" transform="translate(0 -100.698)" fill="#fff"/></g></g></svg>