<svg xmlns="http://www.w3.org/2000/svg" width="35.982" height="35.982" viewBox="0 0 35.982 35.982"><path d="M112.263,454.594H89.212l1.63,2.474h19.79Z" transform="translate(-82.746 -421.648)" fill="#e1e6e9"/><path d="M103.8,450.434H84.007a.5.5,0,0,1-.45-.281l-1.63-2.474a.511.511,0,0,1,0-.562.59.59,0,0,1,.506-.281h23.051a.591.591,0,0,1,.506.281.511.511,0,0,1,0,.562l-1.63,2.474A.781.781,0,0,1,103.8,450.434ZM84.288,449.31h19.228l.9-1.349H83.444Z" transform="translate(-75.911 -414.452)" fill="#193651"/><path d="M152.824,407.824h13.831l-3.036-3.654H155.86Z" transform="translate(-141.748 -374.878)" fill="#cfd0d1"/><path d="M159.394,400.472H145.563a.54.54,0,0,1-.506-.337.6.6,0,0,1,.056-.618l3.036-3.654a.694.694,0,0,1,.45-.225h7.759a.511.511,0,0,1,.45.225l3.036,3.654a.6.6,0,0,1,.056.618A.492.492,0,0,1,159.394,400.472Zm-12.65-1.124h11.469l-2.136-2.53h-7.2Z" transform="translate(-134.488 -366.964)" fill="#193651"/><path d="M42.615,64.871A2.784,2.784,0,0,0,39.8,62.06H10.568a2.784,2.784,0,0,0-2.811,2.811V82.244H42.615Z" transform="translate(-7.195 -57.562)" fill="#fff"/><path d="M35.42,75.611H.562A.531.531,0,0,1,0,75.049V57.676A3.383,3.383,0,0,1,3.373,54.3H32.609a3.383,3.383,0,0,1,3.373,3.373V75.049A.563.563,0,0,1,35.42,75.611Zm-34.3-1.124H34.858V57.676a2.255,2.255,0,0,0-2.249-2.249H3.373a2.255,2.255,0,0,0-2.249,2.249v16.81Z" transform="translate(0 -50.367)" fill="#193651"/><path d="M38.788,108.776V93.652a.531.531,0,0,1,.562-.562H68.586a.531.531,0,0,1,.562.562v15.124Z" transform="translate(-35.977 -86.343)" fill="#2ea2db"/><path d="M7.758,340.558v1.8a2.784,2.784,0,0,0,2.811,2.811H39.8a2.784,2.784,0,0,0,2.811-2.811v-1.8Z" transform="translate(-7.196 -315.876)" fill="#fff"/><path d="M32.609,338.535H3.373A3.383,3.383,0,0,1,0,335.161v-1.8a.531.531,0,0,1,.562-.562H35.42a.531.531,0,0,1,.562.562v1.8A3.383,3.383,0,0,1,32.609,338.535Zm-31.484-4.61v1.237a2.255,2.255,0,0,0,2.249,2.249H32.609a2.255,2.255,0,0,0,2.249-2.249v-1.237Z" transform="translate(0 -308.681)" fill="#193651"/><rect width="1.124" height="1.124" transform="translate(21.196 26.481)" fill="#193651"/><rect width="1.124" height="1.124" transform="translate(17.429 26.481)" fill="#193651"/><rect width="1.124" height="1.124" transform="translate(13.662 26.481)" fill="#193651"/><path d="M89.988,9.444V22.375a1.657,1.657,0,0,0,1.687,1.687H111.24a1.657,1.657,0,0,0,1.687-1.687V9.444a1.657,1.657,0,0,0-1.687-1.687H91.675A1.691,1.691,0,0,0,89.988,9.444Z" transform="translate(-83.466 -7.195)" fill="#fff"/><path d="M104.045,17.429H84.48a2.255,2.255,0,0,1-2.249-2.249V2.249A2.255,2.255,0,0,1,84.48,0h19.565a2.255,2.255,0,0,1,2.249,2.249V15.18A2.256,2.256,0,0,1,104.045,17.429ZM84.48,1.124a1.128,1.128,0,0,0-1.124,1.124V15.18A1.128,1.128,0,0,0,84.48,16.3h19.565a1.128,1.128,0,0,0,1.124-1.124V2.249a1.128,1.128,0,0,0-1.124-1.124Z" transform="translate(-76.271)" fill="#193651"/><rect width="21.814" height="2.811" transform="translate(7.117 11.098)" fill="#e1e6e9"/><path d="M323.323,49.952h0a1.872,1.872,0,0,1-1.855,1.855h0a1.872,1.872,0,0,1-1.855-1.855h0a1.872,1.872,0,0,1,1.855-1.855h0A1.872,1.872,0,0,1,323.323,49.952Z" transform="translate(-296.449 -44.611)" fill="#f16051"/><path d="M284.535,49.952h0a1.872,1.872,0,0,1-1.855,1.855h0a1.872,1.872,0,0,1-1.855-1.855h0a1.872,1.872,0,0,1,1.855-1.855h0A1.872,1.872,0,0,1,284.535,49.952Z" transform="translate(-260.472 -44.611)" fill="#fdbf5e"/><g transform="translate(9.136 4.02)"><rect width="4.61" height="0.787" transform="translate(0.017)" fill="#193651"/><rect width="4.61" height="0.787" transform="translate(0 1.927)" fill="#193651"/></g><rect width="1.124" height="1.124" transform="translate(14.224 8.714)" fill="#193651"/><rect width="1.124" height="1.124" transform="translate(11.582 8.714)" fill="#193651"/><rect width="1.124" height="1.124" transform="translate(8.939 8.714)" fill="#193651"/></svg>