<svg xmlns="http://www.w3.org/2000/svg" width="257" height="143" viewBox="0 0 257 143"><g transform="translate(-1089 -911)"><g transform="translate(1089 911)" fill="#fff" stroke="#707070" stroke-width="1"><rect width="257" height="143" rx="5" stroke="none"/><rect x="0.5" y="0.5" width="256" height="142" rx="4.5" fill="none"/></g><g transform="translate(0 11.698)"><rect width="105.442" height="25" transform="translate(1131 918) rotate(90)" fill="#0e9aef"/><rect width="105.442" height="13" transform="translate(1151 918) rotate(90)" fill="#0e9aef"/><rect width="105.442" height="13" transform="translate(1171 918) rotate(90)" fill="#0e9aef"/><rect width="105.442" height="18" transform="translate(1196 918) rotate(90)" fill="#0e9aef"/><rect width="105.442" height="6" transform="translate(1209 918) rotate(90)" fill="#0e9aef"/><rect width="105.442" height="4" transform="translate(1218 918) rotate(90)" fill="#0e9aef"/><rect width="105.442" height="17" transform="translate(1242 918) rotate(90)" fill="#0e9aef"/><rect width="105.442" height="33" transform="translate(1280 918) rotate(90)" fill="#0e9aef"/><rect width="105.442" height="15" transform="translate(1300 918) rotate(90)" fill="#0e9aef"/><rect width="105.442" height="15" transform="translate(1320 918) rotate(90)" fill="#0e9aef"/><rect width="105.442" height="5" transform="translate(1330 918) rotate(90)" fill="#0e9aef"/></g></g></svg>