<svg xmlns="http://www.w3.org/2000/svg" width="34.274" height="42.2" viewBox="0 0 34.274 42.2"><g transform="translate(0.003 0.001)"><path d="M223.386,154.7a.988.988,0,0,0-.988.988V174.37a.988.988,0,1,0,1.977,0V155.691A.988.988,0,0,0,223.386,154.7Zm0,0" transform="translate(-200.422 -139.415)" fill="#0e9aef"/><path d="M105.386,154.7a.988.988,0,0,0-.988.988V174.37a.988.988,0,1,0,1.977,0V155.691A.988.988,0,0,0,105.386,154.7Zm0,0" transform="translate(-94.083 -139.415)" fill="#0e9aef"/><path d="M2.8,12.562V36.911a5.452,5.452,0,0,0,1.45,3.761A4.867,4.867,0,0,0,7.784,42.2h18.7a4.866,4.866,0,0,0,3.531-1.527,5.453,5.453,0,0,0,1.45-3.761V12.562A3.775,3.775,0,0,0,30.5,5.138h-5.06V3.9A3.882,3.882,0,0,0,21.522,0H12.746A3.882,3.882,0,0,0,8.832,3.9V5.138H3.772A3.775,3.775,0,0,0,2.8,12.562Zm23.68,27.66H7.784a3.13,3.13,0,0,1-3-3.311V12.649H29.487V36.911a3.13,3.13,0,0,1-3,3.311ZM10.809,3.9a1.9,1.9,0,0,1,1.937-1.927h8.776A1.9,1.9,0,0,1,23.459,3.9V5.138H10.809ZM3.772,7.114H30.5a1.779,1.779,0,0,1,0,3.558H3.772a1.779,1.779,0,1,1,0-3.558Zm0,0" transform="translate(0 0)" fill="#0e9aef"/><path d="M164.386,154.7a.988.988,0,0,0-.988.988V174.37a.988.988,0,1,0,1.977,0V155.691A.988.988,0,0,0,164.386,154.7Zm0,0" transform="translate(-147.253 -139.415)" fill="#0e9aef"/></g></svg>