<svg xmlns="http://www.w3.org/2000/svg" xmlns:xlink="http://www.w3.org/1999/xlink" width="39.17" height="36.999" viewBox="0 0 39.17 36.999"><defs><linearGradient id="a" x1="0.293" y1="0.844" x2="0.543" y2="0.313" gradientUnits="objectBoundingBox"><stop offset="0" stop-color="#00a6f9"/><stop offset="1" stop-color="#0071e2"/></linearGradient><linearGradient id="b" x1="0.136" y1="0.269" x2="0.779" y2="-1.005" gradientUnits="objectBoundingBox"><stop offset="0" stop-color="#c2cece"/><stop offset="1" stop-color="#97aaaa"/></linearGradient><linearGradient id="c" x1="0.456" y1="-6.007" x2="0.456" y2="-5.336" gradientUnits="objectBoundingBox"><stop offset="0" stop-color="#c2cece" stop-opacity="0"/><stop offset="0.179" stop-color="#afbcbc" stop-opacity="0.18"/><stop offset="1" stop-color="#5b6a6a"/></linearGradient><linearGradient id="d" x1="0.121" y1="0.034" x2="0.998" y2="-1.03" xlink:href="#a"/><linearGradient id="e" x1="0.463" y1="-0.734" x2="0.463" y2="-0.866" gradientUnits="objectBoundingBox"><stop offset="0" stop-color="#008bf2" stop-opacity="0"/><stop offset="1" stop-color="#0046e2"/></linearGradient><linearGradient id="f" x1="0.599" y1="-0.335" x2="-0.002" y2="1.162" xlink:href="#e"/><linearGradient id="g" x1="0.387" y1="-6.346" x2="0.28" y2="-5.165" xlink:href="#c"/><linearGradient id="h" x1="0.373" y1="-0.101" x2="0.373" y2="1.267" xlink:href="#c"/><linearGradient id="i" x1="-0.296" y1="-0.102" x2="-0.296" y2="1.288" xlink:href="#c"/><linearGradient id="j" x1="-0.039" y1="0.617" x2="-1.451" y2="0.555" xlink:href="#e"/><linearGradient id="k" x1="0.481" y1="4.49" x2="0.035" y2="4.919" xlink:href="#e"/><linearGradient id="l" x1="0.112" y1="7.096" x2="0.112" y2="4.202" gradientUnits="objectBoundingBox"><stop offset="0" stop-color="#ffc200"/><stop offset="0.268" stop-color="#fb0"/><stop offset="0.659" stop-color="#ffa801"/><stop offset="1" stop-color="#ff9102"/></linearGradient><linearGradient id="m" x1="-0.625" y1="6.64" x2="0.221" y2="6.64" gradientUnits="objectBoundingBox"><stop offset="0" stop-color="#ffc200" stop-opacity="0"/><stop offset="0.203" stop-color="#fb0" stop-opacity="0.204"/><stop offset="0.499" stop-color="#ffa700" stop-opacity="0.498"/><stop offset="0.852" stop-color="#f80" stop-opacity="0.851"/><stop offset="1" stop-color="#ff7800"/></linearGradient><linearGradient id="n" x1="0.379" y1="4.49" x2="-0.068" y2="4.919" xlink:href="#e"/><linearGradient id="o" x1="-0.115" y1="7.096" x2="-0.115" y2="4.202" xlink:href="#l"/><linearGradient id="p" x1="-1.079" y1="6.64" x2="-0.234" y2="6.64" xlink:href="#m"/></defs><g transform="translate(0 -14.192)"><path d="M70.177,42.994H39.961a1.538,1.538,0,0,0-1.537,1.537v31.72a1.538,1.538,0,0,0,1.537,1.537H70.177a1.538,1.538,0,0,0,1.537-1.537V44.531A1.538,1.538,0,0,0,70.177,42.994Z" transform="translate(-35.485 -26.599)" fill="url(#a)"/><path d="M70.182,278.211H39.966a1.537,1.537,0,0,1-1.537-1.537V260.019h33.29v16.654A1.537,1.537,0,0,1,70.182,278.211Z" transform="translate(-35.489 -227.02)" fill="url(#b)"/><path d="M70.182,440.28H39.966a1.537,1.537,0,0,1-1.537-1.537v-3.228h33.29v3.228A1.537,1.537,0,0,1,70.182,440.28Z" transform="translate(-35.489 -389.089)" fill="url(#c)"/><path d="M37.632,273.233H1.538a1.537,1.537,0,0,1-1.5-1.88l2.9-12.673H36.23l2.9,12.673A1.537,1.537,0,0,1,37.632,273.233Z" transform="translate(0 -225.784)" fill="url(#d)"/><path d="M37.632,273.233H1.538a1.537,1.537,0,0,1-1.5-1.88l2.9-12.673H36.23l2.9,12.673A1.537,1.537,0,0,1,37.632,273.233Z" transform="translate(0 -225.784)" fill="url(#e)"/><path d="M73.121,273.233a1.537,1.537,0,0,0,1.5-1.88l-2.9-12.673H38.429l14.553,14.553Z" transform="translate(-35.489 -225.784)" fill="url(#f)"/><path d="M71.719,448.911H38.429v.051l3.69,3.69H70.182a1.537,1.537,0,0,0,1.537-1.537Z" transform="translate(-35.489 -401.461)" fill="url(#g)"/><g transform="translate(11.639 24.467)"><path d="M152.136,160.243v-6.486a4.781,4.781,0,0,1,1.36-3.767,6.1,6.1,0,0,1,7.277,0,4.76,4.76,0,0,1,1.371,3.767v6.486a4.759,4.759,0,0,1-1.371,3.767,6.1,6.1,0,0,1-7.277,0A4.781,4.781,0,0,1,152.136,160.243Zm2.363,0q0,2.875,2.63,2.875a2.6,2.6,0,0,0,1.961-.713,3,3,0,0,0,.691-2.162v-6.486a3,3,0,0,0-.691-2.162,2.606,2.606,0,0,0-1.961-.713q-2.63,0-2.63,2.875Z" transform="translate(-152.136 -148.764)" fill="#fff"/><path d="M301.885,151.882a1.064,1.064,0,0,1,.468-.914l2.318-2.229a.818.818,0,0,1,.6-.245,1.3,1.3,0,0,1,.724.212.651.651,0,0,1,.323.568v14.755a.64.64,0,0,1-.357.568,1.583,1.583,0,0,1-.825.212,1.566,1.566,0,0,1-.836-.212.642.642,0,0,1-.346-.568V151.637l-.78.981a.682.682,0,0,1-.49.223.7.7,0,0,1-.568-.3A1.047,1.047,0,0,1,301.885,151.882Z" transform="translate(-290.429 -148.494)" fill="#fff"/></g><g transform="translate(11.639 32.896)"><path d="M159.78,258.679v3.049a3,3,0,0,1-.691,2.162,2.6,2.6,0,0,1-1.961.713q-2.63,0-2.631-2.876v-3.049h-2.362v3.049a4.776,4.776,0,0,0,1.36,3.766,6.1,6.1,0,0,0,7.277,0,4.755,4.755,0,0,0,1.371-3.766v-3.049Z" transform="translate(-152.135 -258.679)" fill="url(#h)"/><path d="M328.983,258.679v7.106a.643.643,0,0,0,.345.569,1.563,1.563,0,0,0,.835.211,1.582,1.582,0,0,0,.825-.211.641.641,0,0,0,.357-.569v-7.106Z" transform="translate(-315.453 -258.679)" fill="url(#i)"/></g><path d="M449.138,72.168l-2.9-12.673V44.531a1.538,1.538,0,0,0-1.537-1.537h-.727a1.538,1.538,0,0,1,1.537,1.537V59.495l2.9,12.673a1.537,1.537,0,0,1-1.5,1.881h.727A1.537,1.537,0,0,0,449.138,72.168Z" transform="translate(-410.007 -26.599)" fill="url(#j)"/><path d="M165.358,45.733a1.431,1.431,0,0,1-.456-1.047V42.994h2.87l2.344,2.344a3.983,3.983,0,0,1,1.167,2.817h0a1.462,1.462,0,0,1-1.369,1.474,1.431,1.431,0,0,1-1.114-.455Z" transform="translate(-152.286 -26.599)" fill="url(#k)"/><path d="M166.338,19.521h0a1.435,1.435,0,0,1-1.435-1.435v-2.46a1.435,1.435,0,0,1,1.435-1.435h0a1.435,1.435,0,0,1,1.435,1.435v2.46A1.435,1.435,0,0,1,166.338,19.521Z" transform="translate(-152.287 0)" fill="url(#l)"/><path d="M183.658,14.192v5.329a1.435,1.435,0,0,0,1.435-1.435v-2.46A1.435,1.435,0,0,0,183.658,14.192Z" transform="translate(-169.608 0)" fill="url(#m)"/><path d="M301.667,45.733a1.431,1.431,0,0,1-.456-1.047V42.994h2.87l2.344,2.344a3.983,3.983,0,0,1,1.167,2.817h0a1.462,1.462,0,0,1-1.369,1.474,1.431,1.431,0,0,1-1.114-.455Z" transform="translate(-278.167 -26.599)" fill="url(#n)"/><path d="M302.648,19.521h0a1.435,1.435,0,0,1-1.435-1.435v-2.46a1.435,1.435,0,0,1,1.435-1.435h0a1.435,1.435,0,0,1,1.435,1.435v2.46A1.435,1.435,0,0,1,302.648,19.521Z" transform="translate(-278.169 0)" fill="url(#o)"/><path d="M319.968,14.192v5.329a1.435,1.435,0,0,0,1.435-1.435v-2.46A1.435,1.435,0,0,0,319.968,14.192Z" transform="translate(-295.489 0)" fill="url(#p)"/></g></svg>