<svg xmlns="http://www.w3.org/2000/svg" width="28.449" height="28.449" viewBox="0 0 28.449 28.449"><g transform="translate(0 0)"><path d="M26.367,2.586H5.173v.186l-.265-.909A2.6,2.6,0,0,0,2.425,0H.647a.647.647,0,0,0,0,1.293H2.425a1.3,1.3,0,0,1,1.241.931l4.025,13.8L5.628,18.6a2.083,2.083,0,0,0,1.627,3.383H25.217a.647.647,0,1,0,0-1.293H7.255a.789.789,0,0,1-.616-1.282l2.078-2.6H21.4a2.6,2.6,0,0,0,2.341-1.485l4.512-9.588a2.1,2.1,0,0,0,.2-.886V4.669A2.084,2.084,0,0,0,26.367,2.586Zm.789,2.266a.791.791,0,0,1-.075.336L22.57,14.775a1.3,1.3,0,0,1-1.171.743H8.89L5.5,3.879H26.367a.79.79,0,0,1,.789.789Z" fill="#fff"/><path d="M87.919,384a2.586,2.586,0,1,0,2.586,2.586A2.589,2.589,0,0,0,87.919,384Zm0,3.879a1.293,1.293,0,1,1,1.293-1.293A1.295,1.295,0,0,1,87.919,387.879Z" transform="translate(-80.16 -360.723)" fill="#fff"/><path d="M343.919,384a2.586,2.586,0,1,0,2.586,2.586A2.589,2.589,0,0,0,343.919,384Zm0,3.879a1.293,1.293,0,1,1,1.293-1.293A1.295,1.295,0,0,1,343.919,387.879Z" transform="translate(-320.643 -360.723)" fill="#fff"/></g></svg>