<svg xmlns="http://www.w3.org/2000/svg" width="41.915" height="41.704" viewBox="0 0 41.915 41.704"><g transform="translate(0 -0.261)"><path d="M38.685,61.282a1.044,1.044,0,0,0-1.044,1.044v9.269a3.135,3.135,0,0,1-3.132,3.132H5.219a3.135,3.135,0,0,1-3.132-3.132v-27.2A3.135,3.135,0,0,1,5.219,41.26h9.269a1.044,1.044,0,0,0,0-2.088H5.219A5.225,5.225,0,0,0,0,44.392v27.2a5.225,5.225,0,0,0,5.219,5.219H34.51a5.225,5.225,0,0,0,5.219-5.219V62.326a1.044,1.044,0,0,0-1.044-1.044Zm0,0" transform="translate(0 -34.849)" fill="#0e9aef"/><path d="M136.212,1.637a4.7,4.7,0,0,0-6.643,0L110.945,20.26a1.044,1.044,0,0,0-.268.46l-2.449,8.842a1.044,1.044,0,0,0,1.284,1.285l8.842-2.449a1.044,1.044,0,0,0,.46-.268L137.437,9.5a4.7,4.7,0,0,0,0-6.643Zm-22.992,19.3L128.462,5.7l4.916,4.916L118.135,25.854Zm-.982,1.97,3.927,3.928-5.432,1.505Zm23.723-14.88-1.107,1.107L129.938,4.22l1.107-1.107a2.61,2.61,0,0,1,3.69,0l1.225,1.225A2.613,2.613,0,0,1,135.961,8.029Zm0,0" transform="translate(-96.896)" fill="#0e9aef"/></g></svg>