<svg xmlns="http://www.w3.org/2000/svg" data-name="Layer 1" width="512" height="512"><rect id="backgroundrect" width="100%" height="100%" x="0" y="0" fill="none" stroke="none"/><title>Commercial delivery </title><g class="currentLayer" style=""><title>Layer 1</title><polygon points="203.654 241.22 377.296 140.969 295.628 93.818 121.986 194.069 203.654 241.22" id="svg_1" class="" fill="#ffffff" fill-opacity="1"/><polygon points="197 253.344 23 153.085 23 353.619 197 453.878 197 253.344" id="svg_2" class="" fill="#ffffff" fill-opacity="1"/><rect x="351" y="356" width="19" height="19" id="svg_3" class="" fill="#ffffff" fill-opacity="1"/><path d="M211,253.344V453.878l95-54.935V254.182A30.037,30.037,0,0,1,335.891,224H360.8a24.533,24.533,0,0,1,23.417-18H384V153.085Z" id="svg_4" class="" fill="#ffffff" fill-opacity="1"/><rect x="374" y="220" width="61" height="21" rx="10.16100025177002" id="svg_5" class="" fill="#ffffff" fill-opacity="1"/><polygon points="281.628 85.735 203.654 40.717 30.013 140.969 107.986 185.987 281.628 85.735" id="svg_6" class="" fill="#ffffff" fill-opacity="1"/><path d="M472.916,238H447.733a23.942,23.942,0,0,1-23.143,17H384.217a23.944,23.944,0,0,1-23.144-17H335.891A16.022,16.022,0,0,0,320,254.182v202.1A15.628,15.628,0,0,0,335.891,472H472.916A15.793,15.793,0,0,0,489,456.282v-202.1A16.186,16.186,0,0,0,472.916,238ZM337,285.033A6.985,6.985,0,0,1,343.949,278h32.975A7.093,7.093,0,0,1,384,285.033v4.71a7.019,7.019,0,0,1-7.038,6.984A6.739,6.739,0,0,1,370.307,292H351v19h.276a7,7,0,1,1,0,14h-7.327A6.95,6.95,0,0,1,337,318.008ZM337,349a7,7,0,0,1,7-7h33a7,7,0,0,1,7,7v33a7,7,0,0,1-7,7H344a7,7,0,0,1-7-7Zm14.277,104h-7.328A6.752,6.752,0,0,1,337,446.244V413.269A7.191,7.191,0,0,1,343.949,406h32.975A7.3,7.3,0,0,1,384,413.269v6.745A7.037,7.037,0,0,1,369.929,420H351v19h.277a7,7,0,1,1,0,14Zm51.664-27.259-25.452,25.452a7,7,0,0,1-9.9,0L356.4,440.007a7,7,0,1,1,9.9-9.9l6.236,6.237,20.5-20.5a7,7,0,0,1,9.9,9.9Zm0-129.249-25.452,25.452a7,7,0,0,1-9.9,0L356.4,310.758a7,7,0,1,1,9.9-9.9l6.236,6.237,20.5-20.5a7,7,0,0,1,9.9,9.9ZM464.857,437H420.891a7,7,0,0,1,0-14h43.966a7,7,0,0,1,0,14Zm0-64H420.891a7,7,0,0,1,0-14h43.966a7,7,0,0,1,0,14Zm0-64H420.891a7,7,0,0,1,0-14h43.966a7,7,0,0,1,0,14Z" id="svg_7" class="" fill="#ffffff" fill-opacity="1"/></g></svg>