<svg xmlns="http://www.w3.org/2000/svg" width="29.777" height="28.302" viewBox="0 0 29.777 28.302"><g transform="translate(0 -12.675)"><g transform="translate(0 12.676)"><path d="M29.277,25.25l-2.515-2.292v-7.6a.876.876,0,0,0-.876-.876H19.83a.876.876,0,0,0-.876.876v.487l-3.038-2.768a1.52,1.52,0,0,0-2.057,0L.5,25.25a1.527,1.527,0,0,0,1.029,2.656H3.662V40.1a.876.876,0,0,0,.876.876h7.323a.876.876,0,0,0,.876-.876V32.7h4.3V40.1a.876.876,0,0,0,.876.876h7.322a.876.876,0,0,0,.876-.876v-12.2h2.134a1.527,1.527,0,0,0,1.028-2.656Zm-4.038.9a.876.876,0,0,0-.876.876v12.2H18.792V31.821a.876.876,0,0,0-.876-.876H11.861a.876.876,0,0,0-.876.876v7.406H5.414V27.03a.876.876,0,0,0-.876-.876H2.108l12.78-11.645,4.352,3.966a.876.876,0,0,0,1.465-.647V16.233h4.3v7.111a.876.876,0,0,0,.286.647l2.373,2.162Z" transform="translate(0 -12.676)" fill="#fff"/></g></g></svg>