<svg xmlns="http://www.w3.org/2000/svg" width="35.982" height="38.715" viewBox="0 0 35.982 38.715"><g transform="translate(-0.5)"><path d="M73.165,125.347H43.719v-5.074a.378.378,0,0,1,.378-.378h28.69a.378.378,0,0,1,.378.378Zm0,0" transform="translate(-39.951 -110.829)" fill="#838383"/><path d="M412.256,125.347h-1.709v-5.453h1.33a.378.378,0,0,1,.378.378v5.074Zm0,0" transform="translate(-379.041 -110.829)" fill="#5a5a5a"/><path d="M40.948,210.149H9.907a1.9,1.9,0,0,1-1.9-1.9V193.908a1.9,1.9,0,0,1,1.9-1.9H40.948a1.9,1.9,0,0,1,1.9,1.9v14.338a1.9,1.9,0,0,1-1.9,1.9Zm0,0" transform="translate(-6.936 -177.486)" fill="#0e9aef"/><path d="M420.34,193.907v14.338a1.9,1.9,0,0,1-1.9,1.9h-2.065a1.9,1.9,0,0,0,1.9-1.9V193.907a1.9,1.9,0,0,0-1.9-1.9h2.065A1.9,1.9,0,0,1,420.34,193.907Zm0,0" transform="translate(-384.424 -177.486)" fill="#278bc7"/><path d="M83.646,352.757H56.067v-6.1a.378.378,0,0,1,.378-.378H83.268a.378.378,0,0,1,.378.378v6.1Zm0,0" transform="translate(-51.365 -320.094)" fill="#838383"/><path d="M60.362,238.259a1.767,1.767,0,1,1-1.767-1.767A1.767,1.767,0,0,1,60.362,238.259Zm0,0" transform="translate(-52.068 -218.61)" fill="#ff5757"/><path d="M62.785,240.674a1.767,1.767,0,0,1-3.336.813,1.768,1.768,0,0,0,2.382-2.382A1.767,1.767,0,0,1,62.785,240.674Zm0,0" transform="translate(-54.491 -221.025)" fill="#ff4343"/><path d="M135.485,255.761a1.084,1.084,0,1,1-1.084-1.085A1.084,1.084,0,0,1,135.485,255.761Zm0,0" transform="translate(-122.773 -235.419)" fill="#ffb509"/><path d="M137.03,256.328a1.084,1.084,0,0,1-2.042.508,1.085,1.085,0,0,0,1.273-1.547,1.085,1.085,0,0,1,.769,1.038Zm0,0" transform="translate(-124.319 -235.986)" fill="#fa0"/><path d="M109.054,358.241H86.885a.405.405,0,0,1-.405-.405V346.278h22.979v11.558a.405.405,0,0,1-.4.405Zm0,0" transform="translate(-79.478 -320.094)" fill="#e7e7e7"/><path d="M366.633,358.241h-1.5V346.277h1.909v11.558a.405.405,0,0,1-.4.405Zm0,0" transform="translate(-337.057 -320.094)" fill="#cecece"/><path d="M109.46,21.436V8.074a.57.57,0,0,0-.569-.57H87.05a.57.57,0,0,0-.57.57V21.436Zm0,0" transform="translate(-79.479 -6.937)" fill="#e7e7e7"/><path d="M360.921,8.077V21.44h-1.84V8.077a.57.57,0,0,0-.57-.569h1.84A.57.57,0,0,1,360.921,8.077Zm0,0" transform="translate(-330.941 -6.94)" fill="#cecece"/><path d="M51.655,233.658a2.335,2.335,0,1,0-2.335-2.335A2.337,2.337,0,0,0,51.655,233.658Zm0-3.535a1.2,1.2,0,1,1-1.2,1.2A1.2,1.2,0,0,1,51.655,230.123Zm0,0" transform="translate(-45.128 -211.673)"/><path d="M129.116,248.824a1.652,1.652,0,1,0-1.652,1.652A1.654,1.654,0,0,0,129.116,248.824Zm-2.169,0a.517.517,0,1,1,.517.517A.517.517,0,0,1,126.948,248.824Zm0,0" transform="translate(-115.837 -228.483)"/><path d="M129.133,388.018h3.036a.567.567,0,1,0,0-1.135h-3.036a.567.567,0,1,0,0,1.135Zm0,0" transform="translate(-118.382 -357.629)"/><path d="M197.188,387.447a.567.567,0,0,0-.568-.568h-6.244a.568.568,0,0,0,0,1.135h6.244A.567.567,0,0,0,197.188,387.447Zm0,0" transform="translate(-174.994 -357.626)"/><path d="M300.257,386.879h-2.748a.568.568,0,1,0,0,1.135h2.748a.568.568,0,0,0,0-1.135Zm0,0" transform="translate(-274.026 -357.625)"/><path d="M133.46,425.028a.567.567,0,0,0-.567-.567h-3.759a.567.567,0,1,0,0,1.135h3.759A.567.567,0,0,0,133.46,425.028Zm0,0" transform="translate(-118.382 -392.366)"/><path d="M208.184,424.461a.567.567,0,1,0,0,1.135h3.686a.567.567,0,1,0,0-1.135Zm0,0" transform="translate(-191.456 -392.366)"/><path d="M289.609,424.461H285.99a.567.567,0,1,0,0,1.135h3.619a.567.567,0,1,0,0-1.135Zm0,0" transform="translate(-263.377 -392.366)"/><path d="M129.133,462.039a.567.567,0,0,0,0,1.135h2.315a.567.567,0,0,0,0-1.135Zm0,0" transform="translate(-118.382 -427.102)"/><path d="M181.684,463.174h7.461a.567.567,0,1,0,0-1.135h-7.461a.567.567,0,0,0,0,1.135Zm0,0" transform="translate(-166.959 -427.102)"/><path d="M307.815,462.039h-2.13a.567.567,0,1,0,0,1.135h2.13a.567.567,0,1,0,0-1.135Zm0,0" transform="translate(-281.583 -427.102)"/><path d="M34.012,13.951h-.23V9.444a.947.947,0,0,0-.946-.946H30.549V1.137A1.138,1.138,0,0,0,29.411,0H7.572A1.138,1.138,0,0,0,6.434,1.137V8.5H4.146a.947.947,0,0,0-.946.946v4.507h-.23A2.473,2.473,0,0,0,.5,16.422v8.157a.567.567,0,1,0,1.135,0V16.421a1.337,1.337,0,0,1,1.336-1.336H34.012a1.337,1.337,0,0,1,1.336,1.336V30.759A1.337,1.337,0,0,1,34.012,32.1H32.848V26.562a.947.947,0,0,0-.946-.946H5.08a.947.947,0,0,0-.946.946V32.1H2.971a1.337,1.337,0,0,1-1.336-1.336V27.245a.567.567,0,0,0-1.135,0v3.514A2.473,2.473,0,0,0,2.971,33.23H6.434v4.512a.974.974,0,0,0,.973.973H29.576a.974.974,0,0,0,.973-.973V36.552a.568.568,0,0,0-1.135,0v1.027H7.57V26.751H29.414v7.21a.568.568,0,0,0,1.135,0V33.23h3.463a2.474,2.474,0,0,0,2.471-2.471V16.421a2.473,2.473,0,0,0-2.471-2.47Zm-27.577,0h-2.1V9.633h2.1Zm22.979-.019H7.569l0-12.8h10.92l10.922,0Zm3.233.019h-2.1V9.633h2.1ZM6.434,32.1H5.269V26.751H6.434Zm25.279,0H30.549V26.751h1.165Zm0,0"/></g></svg>