<svg xmlns="http://www.w3.org/2000/svg" width="31.977" height="28.449" viewBox="0 0 31.977 28.449"><g transform="translate(1810.978 272.449) rotate(180)"><g transform="translate(3400.978 344.449) rotate(180)"><path d="M15.989,28.45a1.875,1.875,0,0,1-1.236-.465c-1.292-1.13-2.537-2.191-3.636-3.127l-.006,0A67.623,67.623,0,0,1,3.172,17.4,11.9,11.9,0,0,1,0,9.61,9.995,9.995,0,0,1,2.537,2.784,8.6,8.6,0,0,1,8.933,0a8.043,8.043,0,0,1,5.024,1.734,10.279,10.279,0,0,1,2.031,2.121A10.28,10.28,0,0,1,18.02,1.734,8.043,8.043,0,0,1,23.044,0a8.6,8.6,0,0,1,6.4,2.784A9.994,9.994,0,0,1,31.977,9.61,11.9,11.9,0,0,1,28.806,17.4a67.615,67.615,0,0,1-7.938,7.451c-1.1.938-2.348,2-3.643,3.133a1.877,1.877,0,0,1-1.236.464ZM8.933,1.873A6.746,6.746,0,0,0,3.914,4.054,8.13,8.13,0,0,0,1.873,9.61a10.014,10.014,0,0,0,2.741,6.6,66.545,66.545,0,0,0,7.712,7.221l.006,0c1.1.94,2.353,2.006,3.655,3.144,1.309-1.14,2.561-2.207,3.667-3.149a66.562,66.562,0,0,0,7.711-7.221,10.015,10.015,0,0,0,2.74-6.6,8.13,8.13,0,0,0-2.041-5.556,6.746,6.746,0,0,0-5.019-2.181,6.212,6.212,0,0,0-3.879,1.343A9.09,9.09,0,0,0,17,5.717a1.182,1.182,0,0,1-2.031,0,9.081,9.081,0,0,0-2.162-2.5A6.212,6.212,0,0,0,8.933,1.873Zm0,0" transform="translate(1590 72)" fill="#fff"/><circle cx="8.5" cy="8.5" r="8.5" transform="translate(1591 73)" fill="#fff"/><circle cx="8.5" cy="8.5" r="8.5" transform="translate(1604 73)" fill="#fff"/></g><path d="M14,0,28,13H0Z" transform="translate(1781 245)" fill="#fff"/></g></svg>